# xmcd
#
# Track frame offsets: 
#        150
#        19133
#        33282
#        50044
#        67242
#        85344
#        99856
#        119509
#        135892
#        152222
#        168867
#        185286
#        202491
#        225640
#        242938
#        261323
#        286765
#        306704
#        322430
#        339475
#
# Disc length: 4764 seconds
#
# Revision: 0
# Processed by: cddbd v1.5.2PL0 Copyright (c) Steve Scherf et al.
# Submitted via: ExactAudioCopy v0.99pb4
#
DISCID=30129a14
DTITLE=Various Artist - prevue promo 1117A-2
DYEAR=2003
DGENRE=pop
TTITLE0=Juniper - Hurt
TTITLE1=Aretha Franklin - Only Thing Missin', The
TTITLE2=Burke Roney - Let It All Come Down
TTITLE3=Jason Nevins Presents Holly James - I'm In Heaven
TTITLE4=Joe Budden feat. Busta Rhymes and Redman - Fire (Yes, Yes Y'all)
TTITLE5=Fannypack - Cameltoe
TTITLE6=Fabolous feat. Tamia - So Into U(Radio Edit)
TTITLE7=David Gray - Caroline
TTITLE8=David Gray - Caroline(Remix)
TTITLE9=Dar Williams - Closer To Me
TTITLE10=Fleetwood Mac - Say You Will(Radio Cold Ending)
TTITLE11=Fleetwood Mac - Say You Will(Radio Fade)
TTITLE12=Led Zeppelin - Over The Hills And Far Away(Live Album Version
TTITLE12=Applause Tag)
TTITLE13=Ted Nugent - At Home There
TTITLE14=Staind - So Far Away
TTITLE15=Metallica - St. Anger
TTITLE16=Mars Volta - Inertiatic Esp
TTITLE17=Revolution Smile, The - Bonethrower
TTITLE18=Godsmack - Serenity(Radio)
TTITLE19=GOB - Oh! Ellin
EXTD=
EXTT0=
EXTT1=
EXTT2=
EXTT3=
EXTT4=
EXTT5=
EXTT6=
EXTT7=
EXTT8=
EXTT9=
EXTT10=
EXTT11=
EXTT12=
EXTT13=
EXTT14=
EXTT15=
EXTT16=
EXTT17=
EXTT18=
EXTT19=
PLAYORDER=
